<?xml version="1.0" encoding="utf-8"?>
<!-- Generator: Adobe Illustrator 19.0.0, SVG Export Plug-In . SVG Version: 6.00 Build 0)  -->
<svg version="1.1" id="Camada_1" xmlns="http://www.w3.org/2000/svg" xmlns:xlink="http://www.w3.org/1999/xlink" x="0px" y="0px"
	 viewBox="0 0 64 64" style="enable-background:new 0 0 64 64;" xml:space="preserve">
<style type="text/css">
	.st0{display:none;}
	.st1{display:inline;fill:none;stroke:#462E7D;stroke-width:3;stroke-linecap:round;stroke-linejoin:round;stroke-miterlimit:10;}
	.st2{display:inline;}
	.st3{fill:none;stroke:#462E7D;stroke-width:3;stroke-linecap:round;stroke-linejoin:round;stroke-miterlimit:10;}
	.st4{display:inline;fill:none;stroke:#319EAB;stroke-width:3;stroke-linecap:round;stroke-linejoin:round;stroke-miterlimit:10;}
	.st5{display:inline;fill:#319EAB;}
</style>
<g id="Chuva" class="st0">
	<path id="XMLID_84_" class="st1" d="M21.2,34.7c-1.8,2-3.7,4.1-5.5,6.1c-0.2,0.3-1.6,2.8-0.6,5.7c0.1,0.2,1.3,3.5,4.4,3.8
		c2.8,0.3,4.6-2.1,4.7-2.3c1.8-2.5,0.9-5.4,0.8-5.6C23.8,39.9,22.5,37.3,21.2,34.7z"/>
	<path id="XMLID_83_" class="st1" d="M43.8,31.5c-1.8,2-3.7,4.1-5.5,6.1c-0.2,0.3-1.6,2.8-0.6,5.7c0.1,0.2,1.3,3.5,4.4,3.8
		c2.8,0.3,4.6-2.1,4.7-2.3c1.8-2.5,0.9-5.4,0.8-5.6C46.3,36.6,45.1,34.1,43.8,31.5z"/>
	<path id="XMLID_82_" class="st1" d="M32.5,47.1c-1.6,1.8-3.2,3.5-4.7,5.3c-0.1,0.2-1.4,2.4-0.5,4.9c0.1,0.2,1.1,3,3.8,3.3
		c2.4,0.2,3.9-1.8,4.1-2c1.5-2.2,0.8-4.6,0.7-4.8C34.7,51.5,33.6,49.3,32.5,47.1z"/>
	<path id="XMLID_81_" class="st1" d="M58,27.2c0-5.5-3.9-10.1-9-11.2c-0.4-4.2-3.7-7.5-7.8-7.5c-1.4,0-2.7,0.4-3.8,1
		c-1.8-3.6-5.7-6-10.1-6C21,3.4,16,8.2,16,14.2c0,0.5,0.1,1.1,0.1,1.6C10.4,16.4,6,21.3,6,27.2c0,6.4,5.1,11.5,11.5,11.5h0.2
		c-0.7,0.7-1.3,1.5-2,2.2c-0.2,0.3-1.6,2.8-0.6,5.7c0.1,0.2,1.3,3.5,4.4,3.8c2.8,0.3,4.6-2.1,4.7-2.3c1.8-2.5,0.9-5.4,0.8-5.6
		c-0.6-1.3-1.3-2.5-1.9-3.8h14.6c-0.4,1.1-0.8,2.8-0.1,4.7c0.1,0.2,1.3,3.5,4.4,3.8c2.8,0.3,4.6-2.1,4.7-2.3
		c1.8-2.5,0.9-5.4,0.8-5.6c-0.1-0.2-0.2-0.4-0.3-0.6C53.3,38.2,58,33.2,58,27.2z"/>
</g>
<g id="Sol" class="st0">
	<circle id="XMLID_100_" class="st1" cx="32.1" cy="31.7" r="14.2"/>
	<g id="XMLID_95_" class="st2">
		<line id="XMLID_99_" class="st3" x1="32.1" y1="11.9" x2="32.1" y2="7.4"/>
		<line id="XMLID_98_" class="st3" x1="22" y1="13.9" x2="19.9" y2="9.9"/>
		<line id="XMLID_97_" class="st3" x1="14.2" y1="21.3" x2="10.4" y2="18.8"/>
		<line id="XMLID_96_" class="st3" x1="11.2" y1="31.2" x2="6.7" y2="31.2"/>
	</g>
	<g id="XMLID_90_" class="st2">
		<line id="XMLID_94_" class="st3" x1="32.5" y1="52.1" x2="32.6" y2="56.6"/>
		<line id="XMLID_93_" class="st3" x1="42.5" y1="49.8" x2="44.7" y2="53.7"/>
		<line id="XMLID_92_" class="st3" x1="50.1" y1="42.2" x2="53.9" y2="44.6"/>
		<line id="XMLID_91_" class="st3" x1="52.8" y1="32.2" x2="57.3" y2="32.1"/>
	</g>
	<line id="XMLID_89_" class="st1" x1="42.3" y1="13.4" x2="44.9" y2="9.7"/>
	<line id="XMLID_88_" class="st1" x1="50.3" y1="21" x2="54.4" y2="19.1"/>
	<line id="XMLID_87_" class="st1" x1="19.4" y1="53.3" x2="22" y2="49.6"/>
	<line id="XMLID_86_" class="st1" x1="10" y1="44.3" x2="13.7" y2="41.8"/>
</g>
<g id="Nublado" class="st0">
	<g id="XMLID_70_" class="st2">
		<g id="XMLID_76_">
			<line id="XMLID_79_" class="st3" x1="44.2" y1="12.9" x2="44.2" y2="9.7"/>
			<line id="XMLID_78_" class="st3" x1="37.2" y1="14.3" x2="35.7" y2="11.5"/>
			<line id="XMLID_77_" class="st3" x1="31.7" y1="19.4" x2="29.1" y2="17.6"/>
		</g>
		<g id="XMLID_73_">
			<line id="XMLID_75_" class="st3" x1="56.7" y1="34" x2="59.4" y2="35.7"/>
			<line id="XMLID_74_" class="st3" x1="58.6" y1="27" x2="61.8" y2="26.9"/>
		</g>
		<line id="XMLID_72_" class="st3" x1="51.3" y1="13.9" x2="53.1" y2="11.3"/>
		<line id="XMLID_71_" class="st3" x1="56.9" y1="19.2" x2="59.7" y2="17.9"/>
	</g>
	<path id="XMLID_69_" class="st1" d="M44.3,16.9c-5.5,0-9.9,4.4-9.9,9.9c0,0.2,0,0.4,0,0.6c-0.1,0-0.2,0.1-0.3,0.1
		c-1.7-3.2-5.1-5.4-9.1-5.4c-5.6,0-10.1,4.3-10.1,9.7c0,0.5,0,1,0.1,1.4c-5.1,0.6-9.1,5-9.1,10.3c0,5.7,4.6,10.4,10.4,10.4h26.1
		c5.7,0,10.4-4.6,10.4-10.4c0-3.2-1.5-6.1-3.8-8c3.1-1.7,5.3-5,5.3-8.8C54.2,21.3,49.7,16.9,44.3,16.9z"/>
	<path id="XMLID_68_" class="st1" d="M44.8,33.8C44.4,30,41.4,27,37.7,27c-1.2,0-2.4,0.3-3.4,0.9c-1.7-3.2-5.1-5.4-9.1-5.4
		c-5.6,0-10.1,4.3-10.1,9.7c0,0.5,0,1,0.1,1.4c-5.1,0.6-9.1,5-9.1,10.3c0,5.7,4.6,10.4,10.4,10.4h26.1c5.7,0,10.4-4.6,10.4-10.4
		C52.9,39,49.4,34.8,44.8,33.8z"/>
</g>
<g id="Tempestade">
	<path id="XMLID_66_" class="st3" d="M18,42.3c-1.3,1.4-2.6,2.8-4,4.2c-0.1,0.2-1.2,2-0.5,4c0.1,0.2,0.9,2.5,3,2.8
		c2,0.2,3.3-1.4,3.4-1.6c1.3-1.7,0.7-3.8,0.7-3.9C19.7,46,18.8,44.1,18,42.3z"/>
	<path id="XMLID_65_" class="st3" d="M45.9,40.1c-1.1,1.2-2.3,2.4-3.4,3.6c-0.1,0.2-1,1.7-0.5,3.4c0,0.1,0.7,2.1,2.6,2.4
		c1.7,0.2,2.8-1.2,2.9-1.3c1.1-1.5,0.6-3.2,0.6-3.4C47.3,43.3,46.6,41.7,45.9,40.1z"/>
	<path id="XMLID_64_" class="st3" d="M47.8,16c-0.3-3.9-3.5-7-7.3-7C39.2,9,38,9.3,37,9.9c-1.7-3.3-5.3-5.6-9.4-5.6
		c-5.8,0-10.5,4.5-10.5,10c0,0.5,0.1,1,0.1,1.5c-5.3,0.6-9.5,5.2-9.5,10.7c0,5.9,4.8,10.7,10.7,10.7h6.6l-1,1.3l5.2,4.7l-3.6,16.5
		l14.3-19.6l-3.4-2.8h9c5.9,0,10.7-4.8,10.7-10.7C56.3,21.4,52.7,17.1,47.8,16z"/>
	<polygon id="XMLID_63_" class="st3" points="24.1,38.5 38.1,20.8 34.3,35.4 39.9,40.1 25.6,59.7 29.3,43.2 	"/>
</g>
<g id="Lua" class="st0">
	<path id="XMLID_61_" class="st4" d="M29.4,30.6c0-9.1,5-16.9,12.3-20.7C38.5,8.2,35,7.4,31.3,7.4C18.3,7.4,7.7,18.4,7.7,32
		c0,13.6,10.6,24.6,23.7,24.6c4.9,0,9.4-1.5,13.1-4.1C35.7,49.4,29.4,40.7,29.4,30.6z"/>
	<path id="XMLID_60_" class="st5" d="M43.2,32.5c-0.5,1.3-1,2.5-1.4,3.8c-0.5-1.3-1-2.5-1.4-3.8c-1.3-0.5-2.5-1-3.8-1.4
		c1.3-0.5,2.5-1,3.8-1.4c0.5-1.3,1-2.5,1.4-3.8c0.5,1.3,1,2.5,1.4,3.8c1.3,0.5,2.5,1,3.8,1.4C45.7,31.5,44.4,32,43.2,32.5z"/>
	<path id="XMLID_59_" class="st5" d="M53.8,38.9c-0.3,0.8-0.6,1.7-0.9,2.5c-0.3-0.8-0.6-1.7-0.9-2.5c-0.8-0.3-1.7-0.6-2.5-0.9
		c0.8-0.3,1.7-0.6,2.5-0.9c0.3-0.8,0.6-1.7,0.9-2.5c0.3,0.8,0.6,1.7,0.9,2.5c0.8,0.3,1.7,0.6,2.5,0.9C55.5,38.3,54.7,38.6,53.8,38.9
		z"/>
	<path id="XMLID_58_" class="st5" d="M51.1,22.9c-0.3,0.7-0.5,1.4-0.8,2.1c-0.3-0.7-0.5-1.4-0.8-2.1c-0.7-0.3-1.4-0.5-2.1-0.8
		c0.7-0.3,1.4-0.5,2.1-0.8c0.3-0.7,0.5-1.4,0.8-2.1c0.3,0.7,0.5,1.4,0.8,2.1c0.7,0.3,1.4,0.5,2.1,0.8C52.4,22.4,51.7,22.7,51.1,22.9
		z"/>
</g>
<g id="Nublado_Noite" class="st0">
	<path id="XMLID_56_" class="st4" d="M48.8,34.3c-0.4-4.2-3.7-7.5-7.8-7.5c-1.4,0-2.7,0.4-3.8,1c-1.8-3.6-5.7-6-10.1-6
		c-6.2,0-11.2,4.8-11.2,10.8c0,0.5,0.1,1.1,0.1,1.6c-5.7,0.7-10.1,5.5-10.1,11.4c0,6.4,5.1,11.5,11.5,11.5h29
		c6.4,0,11.5-5.1,11.5-11.5C57.9,40.1,54,35.5,48.8,34.3z"/>
	<path id="XMLID_55_" class="st4" d="M53.2,36.4c1.8-0.4,3.4-1.1,4.9-2.2c-5.3-1.9-9.1-7.1-9.1-13.2c0-5.5,3-10.2,7.4-12.5
		c-1.9-1-4-1.5-6.2-1.5c-7.9,0-14.3,6.7-14.3,14.9c0,2,0.4,3.9,1.1,5.7c-1.9-3.4-5.6-5.7-9.9-5.7c-6.2,0-11.3,4.8-11.3,10.8
		c0,0.5,0.1,1.1,0.1,1.6c-5.7,0.7-10.1,5.5-10.1,11.4c0,6.4,5.1,11.5,11.5,11.5h29c6.4,0,11.5-5.1,11.5-11.5
		C57.9,41.8,56,38.4,53.2,36.4z"/>
</g>
</svg>
