<?xml version="1.0" encoding="utf-8"?>
<!-- Generator: Adobe Illustrator 19.0.0, SVG Export Plug-In . SVG Version: 6.00 Build 0)  -->
<svg version="1.1" id="Camada_1" xmlns="http://www.w3.org/2000/svg" xmlns:xlink="http://www.w3.org/1999/xlink" x="0px" y="0px"
	 viewBox="0 0 362.6 150.1" style="enable-background:new 0 0 362.6 150.1;" xml:space="preserve">
<style type="text/css">
	.st0{fill:#FFFFFF;}
	.st1{opacity:0.5;fill:#FFFFFF;}
</style>
<g id="XMLID_547_">
	<circle id="XMLID_650_" class="st0" cx="5.5" cy="16.8" r="3.3"/>
	<circle id="XMLID_649_" class="st0" cx="33.3" cy="13.5" r="1.7"/>
	<circle id="XMLID_648_" class="st0" cx="2.7" cy="97.3" r="1.7"/>
	<circle id="XMLID_647_" class="st0" cx="96.5" cy="57.9" r="1.1"/>
	<circle id="XMLID_645_" class="st0" cx="356" cy="98.4" r="1.1"/>
	<circle id="XMLID_644_" class="st0" cx="113" cy="3.3" r="3.3"/>
	<circle id="XMLID_642_" class="st0" cx="202.4" cy="17.3" r="3.3"/>
	<circle id="XMLID_641_" class="st0" cx="247.1" cy="14" r="1.7"/>
	<circle id="XMLID_639_" class="st0" cx="318.6" cy="101.3" r="1.7"/>
	<circle id="XMLID_638_" class="st0" cx="361" cy="34" r="1.7"/>
	<circle id="XMLID_636_" class="st0" cx="283.7" cy="3.3" r="1.7"/>
	<circle id="XMLID_635_" class="st0" cx="199.6" cy="98.4" r="1.7"/>
	<circle id="XMLID_634_" class="st0" cx="275.9" cy="93.2" r="1.1"/>
	<circle id="XMLID_554_" class="st0" cx="234.2" cy="60.2" r="1.1"/>
	<circle id="XMLID_553_" class="st0" cx="312.9" cy="39" r="3.3"/>
	<circle id="XMLID_552_" class="st0" cx="45.2" cy="122.5" r="3.3"/>
	<circle id="XMLID_551_" class="st0" cx="156.3" cy="71.6" r="1.7"/>
	<circle id="XMLID_550_" class="st0" cx="294" cy="148.4" r="1.7"/>
	<circle id="XMLID_549_" class="st0" cx="106.8" cy="108.8" r="1.7"/>
	<path id="XMLID_548_" class="st1" d="M199.3,147.2l89.3-31.8l-90.9,27.5c-0.5,0-0.9,0.2-1.3,0.5c-1.1,0.8-1.3,2.3-0.4,3.4
		c0.5,0.6,1.3,1,2,0.9v0h0C198.4,147.7,198.9,147.5,199.3,147.2z"/>
</g>
</svg>
