<?xml version="1.0" encoding="utf-8"?>
<!-- Generator: Adobe Illustrator 19.0.0, SVG Export Plug-In . SVG Version: 6.00 Build 0)  -->
<svg version="1.1" id="Camada_1" xmlns="http://www.w3.org/2000/svg" xmlns:xlink="http://www.w3.org/1999/xlink" x="0px" y="0px"
	 viewBox="0 0 309 308.7" style="enable-background:new 0 0 309 308.7;" xml:space="preserve">
<style type="text/css">
	.st0{fill:url(#XMLID_28_);}
	.st1{opacity:0.15;fill:#FFFFFF;}
	.st2{opacity:7.000000e-002;fill:#FFFFFF;}
	.st3{opacity:0.35;}
	.st4{fill:#FFFFFF;}
	.st5{opacity:0.3;}
	.st6{opacity:0.25;}
	.st7{opacity:0.15;}
</style>
<g id="XMLID_215_">
	<radialGradient id="XMLID_28_" cx="155.15" cy="154.8335" r="43.3333" gradientUnits="userSpaceOnUse">
		<stop  offset="0.102" style="stop-color:#FFF694"/>
		<stop  offset="0.9864" style="stop-color:#FFFFFF"/>
	</radialGradient>
	<circle id="XMLID_253_" class="st0" cx="155.1" cy="154.8" r="43.3"/>
	<circle id="XMLID_252_" class="st1" cx="155.1" cy="154.8" r="56.5"/>
	<circle id="XMLID_251_" class="st2" cx="155.1" cy="154.8" r="76.2"/>
	<g id="XMLID_247_" class="st3">
		<path id="XMLID_248_" class="st4" d="M155.1,211.3c-31.2,0-56.5-25.3-56.5-56.5s25.3-56.5,56.5-56.5s56.5,25.3,56.5,56.5
			S186.3,211.3,155.1,211.3z M155.1,99.3c-30.6,0-55.5,24.9-55.5,55.5c0,30.6,24.9,55.5,55.5,55.5s55.5-24.9,55.5-55.5
			C210.6,124.2,185.8,99.3,155.1,99.3z"/>
	</g>
	<g id="XMLID_243_" class="st5">
		<path id="XMLID_244_" class="st4" d="M155.1,224.3c-38.3,0-69.5-31.2-69.5-69.5s31.2-69.5,69.5-69.5s69.5,31.2,69.5,69.5
			S193.5,224.3,155.1,224.3z M155.1,86.6c-37.6,0-68.3,30.6-68.3,68.3c0,37.6,30.6,68.3,68.3,68.3s68.3-30.6,68.3-68.3
			C223.4,117.2,192.8,86.6,155.1,86.6z"/>
	</g>
	<g id="XMLID_238_" class="st5">
		<path id="XMLID_242_" class="st4" d="M109.5,95.2c12.1-9.3,27.2-14.9,43.6-14.9c10.1,0,19.8,2.1,28.5,5.9c0.1-0.3,0.3-0.6,0.5-0.9
			c-8.9-3.9-18.7-6.1-29-6.1c-17.1,0-32.9,6-45.3,16C108.4,95.2,109,95.2,109.5,95.2z"/>
		<path id="XMLID_241_" class="st4" d="M225.4,140.6c0.2,0,0.4,0,0.6,0c0.2,0,0.3,0,0.4,0c-3.8-20.6-16.4-38.3-33.8-48.8
			c-0.1,0.3-0.2,0.7-0.3,1C209.3,103.2,221.6,120.4,225.4,140.6z"/>
		<path id="XMLID_240_" class="st4" d="M226.6,150.6c0,1.1,0.1,2.2,0.1,3.3c0,39.4-32.1,71.5-71.5,71.5s-71.5-32.1-71.5-71.5
			c0-11.5,2.8-22.4,7.6-32.1c-0.3-0.3-0.5-0.6-0.7-0.9c-5.1,9.9-7.9,21.1-7.9,32.9c0,40,32.5,72.5,72.5,72.5
			c40,0,72.5-32.5,72.5-72.5c0-1.2,0-2.3-0.1-3.5C227.2,150.4,226.9,150.5,226.6,150.6z"/>
	</g>
	<g id="XMLID_231_" class="st5">
		<path id="XMLID_236_" class="st4" d="M55.7,136.3c9.3-44.9,48.2-79,95.3-80.9c0-0.3,0.1-0.7,0.1-1c-47.8,1.8-87.3,36.5-96.5,82
			C55,136.4,55.4,136.3,55.7,136.3z"/>
		<path id="XMLID_235_" class="st4" d="M216.6,78.1c-13.5-11.9-30.1-20.3-48.3-23.8c0.3,0.4,0.5,0.7,0.6,1.1
			c17.5,3.5,33.5,11.6,46.6,23C215.9,78.3,216.2,78.2,216.6,78.1z"/>
		<path id="XMLID_234_" class="st4" d="M224.4,85.3c-0.1,0.4-0.2,0.8-0.3,1.2c14.5,17.6,23.3,40.1,23.3,64.6
			c0,7.3-0.8,14.5-2.3,21.3c0.1,0,0.3,0.1,0.4,0.1c0.2,0.1,0.4,0.1,0.5,0.2c1.5-7,2.3-14.2,2.3-21.6
			C248.3,126.1,239.3,103.1,224.4,85.3z"/>
		<path id="XMLID_233_" class="st4" d="M249,208.2c4.4-8.8,7.7-18.2,9.4-28c-0.3-0.1-0.7-0.2-1-0.3c-1.7,9.6-4.8,18.9-9.2,27.5
			C248.6,207.6,248.8,207.9,249,208.2z"/>
		<path id="XMLID_232_" class="st4" d="M219,233.7c-17.4,14.2-39.7,22.7-63.8,22.7c-54.8,0-99.6-43.6-101.4-98c-0.3,0-0.7,0.1-1,0.1
			c1.9,54.9,47.1,98.9,102.4,98.9c24.2,0,46.5-8.5,64.1-22.6C219.1,234.4,219,234,219,233.7z"/>
	</g>
	<g id="XMLID_222_" class="st6">
		<path id="XMLID_230_" class="st4" d="M33.6,201.6c-4.2-13.5-6.3-28-6.1-42.9c1-52.8,31.9-98.1,76.3-120.1
			c-0.3-0.2-0.5-0.5-0.7-0.8C58.6,60,27.5,105.6,26.5,158.7c-0.3,16,2.2,31.4,6.9,45.8C33.5,203.5,33.5,202.6,33.6,201.6z"/>
		<path id="XMLID_229_" class="st4" d="M152.4,28.5c39.3,0,74.7,16.6,99.7,43.2c0.4-0.1,0.9-0.1,1.3-0.1
			c-25.2-27.2-61.2-44.2-101-44.2c-8.5,0-16.8,0.8-24.9,2.3c0,0.3,0.1,0.7,0.1,1C135.6,29.2,143.9,28.5,152.4,28.5z"/>
		<path id="XMLID_224_" class="st4" d="M280.9,150.8c-0.7-21.5-6.3-41.9-15.9-59.9c-0.3,0.2-0.6,0.4-0.9,0.5
			c9.5,18,15.1,38.4,15.7,59.9C280.2,151.1,280.6,150.9,280.9,150.8z"/>
		<path id="XMLID_223_" class="st4" d="M287.6,189.3c-15.3,58.8-68.9,102.4-132.4,102.4c-46.2,0-87.2-23-111.9-58.2
			c4.6,7.1,10.7,13.2,16.3,20.1c0.3,0.4,0.5,0.8,0.7,1.2c24.7,23.5,58.2,38,94.9,38c64.1,0,118.1-44,133.5-103.3
			C288.3,189.4,287.9,189.4,287.6,189.3z"/>
	</g>
	<g id="XMLID_219_" class="st7">
		<path id="XMLID_221_" class="st4" d="M107.9,300.2C46.7,280.2,2.3,222.6,2.3,154.8C2.3,70.6,70.9,2,155.1,2
			c11.9,0,23.5,1.4,34.7,4c0.2-0.3,0.4-0.6,0.6-0.9C179.1,2.4,167.3,1,155.1,1C70.3,1,1.3,70,1.3,154.8c0,68.1,44.5,126,105.9,146.2
			C107.5,300.7,107.7,300.5,107.9,300.2z"/>
		<path id="XMLID_220_" class="st4" d="M200.6,7.8c-0.2,0.3-0.4,0.6-0.6,0.9c62.5,19.2,108,77.4,108,146.1
			c0,84.3-68.6,152.8-152.8,152.8c-12.7,0-25.1-1.6-36.9-4.5c-0.2,0.3-0.5,0.6-0.7,0.9c12,3,24.7,4.7,37.6,4.7
			c84.8,0,153.8-69,153.8-153.8C309,85.8,263.3,27.3,200.6,7.8z"/>
	</g>
	<g id="XMLID_216_" class="st7">
		<path id="XMLID_218_" class="st4" d="M31.8,157.6c-1.1-52,30.9-101.1,82.6-119.2c64.2-22.5,134.7,11.5,157.2,75.7
			c3.2,9.1,5.2,18.3,6.2,27.5c0.3,0.1,0.6,0.2,0.8,0.3c-1-9.4-3.1-18.7-6.3-28C249.7,49.2,178.8,15,114.1,37.6
			C62.3,55.8,30,105.1,31,157.3C31.3,157.4,31.5,157.5,31.8,157.6z"/>
		<path id="XMLID_217_" class="st4" d="M279.2,150.2c-0.3-0.1-0.5-0.1-0.8-0.2c2,52.7-30.2,102.9-82.5,121.2
			c-64.2,22.5-134.7-11.5-157.2-75.7c-3.4-9.7-5.5-19.5-6.4-29.3c-0.3-0.1-0.6-0.2-0.8-0.3c0.9,10,3,20,6.5,29.9
			c22.6,64.6,93.6,98.8,158.2,76.2C248.8,253.6,281.2,203.2,279.2,150.2z"/>
	</g>
</g>
</svg>
