<?xml version="1.0" encoding="utf-8"?>
<!-- Generator: Adobe Illustrator 19.0.0, SVG Export Plug-In . SVG Version: 6.00 Build 0)  -->
<svg version="1.1" id="Camada_1" xmlns="http://www.w3.org/2000/svg" xmlns:xlink="http://www.w3.org/1999/xlink" x="0px" y="0px"
	 viewBox="0 0 17.7 30.1" style="enable-background:new 0 0 17.7 30.1;" xml:space="preserve">
<style type="text/css">
	.st0{fill:#FFFFFF;}
</style>
<g id="XMLID_14_">
	<path id="XMLID_20_" d="M1.8,0L1.8,0C0.8,0,0,0.8,0,1.8l0,12.8c0,1,0.8,1.8,1.8,1.8h0c1,0,1.8-0.8,1.8-1.8V1.8C3.5,0.8,2.7,0,1.8,0
		z"/>
	<path id="XMLID_19_" d="M8.9,26L8.9,26c-1,0-1.8,0.8-1.8,1.8v0.6c0,1,0.8,1.8,1.8,1.8h0c1,0,1.8-0.8,1.8-1.8v-0.6
		C10.6,26.8,9.8,26,8.9,26z"/>
	<path id="XMLID_18_" d="M8.9,5L8.9,5c-1,0-1.8,0.8-1.8,1.8v15.5c0,1,0.8,1.8,1.8,1.8h0c1,0,1.8-0.8,1.8-1.8V6.8
		C10.6,5.8,9.8,5,8.9,5z"/>
	<path id="XMLID_17_" d="M15.9,2.5L15.9,2.5c-1,0-1.8,0.8-1.8,1.8v5.5c0,1,0.8,1.8,1.8,1.8h0c1,0,1.8-0.8,1.8-1.8V4.3
		C17.7,3.3,16.9,2.5,15.9,2.5z"/>
	<path id="XMLID_16_" class="st0" d="M5.3,0L5.3,0c-1,0-1.8,0.8-1.8,1.8v8.1c0,1,0.8,1.8,1.8,1.8h0c1,0,1.8-0.8,1.8-1.8V1.8
		C7.1,0.8,6.3,0,5.3,0z"/>
	<path id="XMLID_15_" class="st0" d="M12.4,4.1L12.4,4.1c-1,0-1.8,0.8-1.8,1.8v4.6c0,1,0.8,1.8,1.8,1.8h0c1,0,1.8-0.8,1.8-1.8V5.9
		C14.2,4.9,13.4,4.1,12.4,4.1z"/>
</g>
</svg>
