<?xml version="1.0" encoding="utf-8"?>
<!-- Generator: Adobe Illustrator 19.0.0, SVG Export Plug-In . SVG Version: 6.00 Build 0)  -->
<svg version="1.1" id="Camada_1" xmlns="http://www.w3.org/2000/svg" xmlns:xlink="http://www.w3.org/1999/xlink" x="0px" y="0px"
	 viewBox="-296 381.9 17.7 30.1" style="enable-background:new -296 381.9 17.7 30.1;" xml:space="preserve">
<style type="text/css">
	.st0{fill:#F4F4F4;}
</style>
<g id="XMLID_14_">
	<path class="st0" d="M-290.6,381.9L-290.6,381.9c-1,0-1.8,0.8-1.8,1.8v8.2c0,1,0.8,1.8,1.8,1.8h0c1,0,1.8-0.8,1.8-1.8v-8.2
		C-288.9,382.7-289.7,381.9-290.6,381.9z"/>
	<path class="st0" d="M-283.6,393.6L-283.6,393.6c0.9,0,1.7-0.8,1.7-1.7v-4.8c0-0.9-0.8-1.7-1.7-1.7l0,0c-0.9,0-1.7,0.8-1.7,1.7v4.8
		C-285.3,392.8-284.5,393.6-283.6,393.6z"/>
	<path d="M-294.2,398.3L-294.2,398.3c-1,0-1.8-0.8-1.8-1.8v-12.8c0-1,0.8-1.8,1.8-1.8l0,0c1,0,1.8,0.8,1.8,1.8v12.8
		C-292.4,397.5-293.2,398.3-294.2,398.3z"/>
	<path d="M-287.1,405.3L-287.1,405.3c-1,0-1.8-0.8-1.8-1.8v-19.8c0-1,0.8-1.8,1.8-1.8l0,0c1,0,1.8,0.8,1.8,1.8v19.8
		C-285.3,404.5-286.1,405.3-287.1,405.3z"/>
	<path d="M-280.1,392.9L-280.1,392.9c-1,0-1.8-0.8-1.8-1.8v-7.4c0-1,0.8-1.8,1.8-1.8l0,0c1,0,1.8,0.8,1.8,1.8v7.4
		C-278.3,392.1-279.1,392.9-280.1,392.9z"/>
	<path d="M-287.1,407.8L-287.1,407.8c-1,0-1.8,0.8-1.8,1.8v0.6c0,1,0.8,1.8,1.8,1.8l0,0c1,0,1.8-0.8,1.8-1.8v-0.6
		C-285.3,408.6-286.1,407.8-287.1,407.8z"/>
</g>
</svg>
