<?xml version="1.0" encoding="utf-8"?>
<!-- Generator: Adobe Illustrator 19.0.0, SVG Export Plug-In . SVG Version: 6.00 Build 0)  -->
<svg version="1.1" id="Camada_1" xmlns="http://www.w3.org/2000/svg" xmlns:xlink="http://www.w3.org/1999/xlink" x="0px" y="0px"
	 viewBox="0 0 109.8 109.3" style="enable-background:new 0 0 109.8 109.3;" xml:space="preserve">
<style type="text/css">
	.st0{opacity:0.5;}
	.st1{fill:url(#XMLID_63_);}
	.st2{opacity:0.15;fill:#FFFFFF;}
	.st3{opacity:7.000000e-002;fill:#FFFFFF;}
	.st4{opacity:0.35;}
	.st5{fill:#FFFFFF;}
	.st6{opacity:0.3;}
	.st7{opacity:0.67;fill:#5B5B5B;}
	.st8{opacity:0.67;fill:#9B9A9A;}
</style>
<g id="XMLID_14_" class="st0">
	<g id="XMLID_95_">
		<radialGradient id="XMLID_63_" cx="54.8971" cy="54.3572" r="31.1984" gradientUnits="userSpaceOnUse">
			<stop  offset="0" style="stop-color:#B5B5B5"/>
			<stop  offset="0.8605" style="stop-color:#B5B5B5"/>
			<stop  offset="0.9864" style="stop-color:#FFFFFF"/>
		</radialGradient>
		<circle id="XMLID_129_" class="st1" cx="54.9" cy="54.4" r="31.2"/>
		<circle id="XMLID_128_" class="st2" cx="54.9" cy="54.4" r="40.7"/>
		<circle id="XMLID_127_" class="st3" cx="54.9" cy="54.4" r="54.9"/>
		<g id="XMLID_123_" class="st4">
			<path id="XMLID_124_" class="st5" d="M54.9,95c-22.4,0-40.7-18.2-40.7-40.7s18.2-40.7,40.7-40.7s40.7,18.2,40.7,40.7
				S77.3,95,54.9,95z M54.9,14.4c-22,0-40,17.9-40,40c0,22,17.9,40,40,40s40-17.9,40-40C94.9,32.3,76.9,14.4,54.9,14.4z"/>
		</g>
		<g id="XMLID_119_" class="st6">
			<path id="XMLID_120_" class="st5" d="M54.9,104.4c-27.6,0-50-22.4-50-50s22.4-50,50-50s50,22.4,50,50S82.5,104.4,54.9,104.4z
				 M54.9,5.2c-27.1,0-49.2,22-49.2,49.2c0,27.1,22,49.2,49.2,49.2s49.2-22,49.2-49.2C104,27.3,82,5.2,54.9,5.2z"/>
		</g>
		<g id="XMLID_115_" class="st6">
			<path id="XMLID_118_" class="st5" d="M22,11.5C30.7,4.7,41.6,0.7,53.5,0.7C60.7,0.7,67.7,2.3,74,5c0.1-0.2,0.2-0.4,0.4-0.6
				C67.9,1.6,60.9,0,53.5,0C41.1,0,29.8,4.3,20.8,11.5C21.2,11.4,21.6,11.4,22,11.5z"/>
			<path id="XMLID_117_" class="st5" d="M105.5,44.1c0.1,0,0.3,0,0.4,0c0.1,0,0.2,0,0.3,0C103.5,29.3,94.4,16.6,81.9,9
				c-0.1,0.2-0.1,0.5-0.2,0.7C93.9,17.2,102.8,29.6,105.5,44.1z"/>
			<path id="XMLID_116_" class="st5" d="M106.3,51.3c0,0.8,0.1,1.6,0.1,2.4c0,28.4-23.1,51.5-51.5,51.5S3.4,82,3.4,53.6
				c0-8.3,2-16.1,5.5-23.1c-0.2-0.2-0.4-0.4-0.5-0.6c-3.6,7.1-5.7,15.2-5.7,23.7c0,28.8,23.4,52.2,52.2,52.2
				c28.8,0,52.2-23.4,52.2-52.2c0-0.8,0-1.7-0.1-2.5C106.8,51.2,106.6,51.3,106.3,51.3z"/>
		</g>
	</g>
	<g id="XMLID_13_" class="st0">
		<circle id="XMLID_78_" class="st7" cx="58.6" cy="40.9" r="7"/>
		<ellipse id="XMLID_72_" class="st8" cx="58.2" cy="41.6" rx="6.8" ry="6.7"/>
	</g>
	<g id="XMLID_17_" class="st0">
		<circle id="XMLID_19_" class="st7" cx="67.8" cy="60.5" r="3.6"/>
		<ellipse id="XMLID_18_" class="st8" cx="67.6" cy="60.9" rx="3.5" ry="3.5"/>
	</g>
	<g id="XMLID_47_" class="st0">
		<circle id="XMLID_56_" class="st7" cx="38.4" cy="66.1" r="4.6"/>
		<ellipse id="XMLID_53_" class="st8" cx="38.2" cy="66.6" rx="4.4" ry="4.3"/>
	</g>
	<g id="XMLID_58_" class="st0">
		<circle id="XMLID_70_" class="st7" cx="36.9" cy="39.5" r="3.6"/>
		<ellipse id="XMLID_69_" class="st8" cx="36.7" cy="39.9" rx="3.4" ry="3.4"/>
	</g>
</g>
</svg>
