<?xml version="1.0" encoding="utf-8"?>
<!-- Generator: Adobe Illustrator 19.0.0, SVG Export Plug-In . SVG Version: 6.00 Build 0)  -->
<svg version="1.1" id="Camada_1" xmlns="http://www.w3.org/2000/svg" xmlns:xlink="http://www.w3.org/1999/xlink" x="0px" y="0px"
	 viewBox="0 285.8 360 223.2" style="enable-background:new 0 285.8 360 223.2;" xml:space="preserve">
<style type="text/css">
	.st0{fill:#8A2E91;}
	.st1{opacity:0.25;enable-background:new    ;}
	.st2{fill:#CD589A;}
	.st3{opacity:0.25;fill:#211915;enable-background:new    ;}
	.st4{fill:#ED54A2;}
	.st5{opacity:0.25;fill:#100A11;enable-background:new    ;}
	.st6{fill:url(#XMLID_2_);}
	.st7{fill:url(#XMLID_3_);}
	.st8{fill:#863388;}
	.st9{fill:#622B6D;}
	.st10{fill:url(#XMLID_4_);}
</style>
<g id="XMLID_277_">
	<g id="XMLID_309_">
		<path id="XMLID_498_" class="st0" d="M149.4,388.9l10.4-11c0,0,11.3,15.5,15.2,19.2l3.4,5.6c0,0,2.4,1.4,3.1,1.6
			c0.7,0.1,4.9,6.5,4.9,6.5s6.8,8.3,8.2,12.7c0.4,1.1,4.9,2.1,5.7,4.5c2.5,7.2,2.5,19.3,2.5,19.3l-51.3-7.4l-4.9-49.3L149.4,388.9z"
			/>
		<path id="XMLID_478_" class="st1" d="M149.1,389.1l10.9-11.2l1.9,6.8l-4.2,1.5c0,0,5.1,2.3,6.2,2.2l-2.7,2.3l5.5,11.8l5.6,1.8
			l-5.9,2l13,20l15.2,8.3l-1.1,5.3l-14.8-0.9l-7.3-13.7L149.1,389.1z"/>
	</g>
	<g id="XMLID_281_">
		<path id="XMLID_283_" class="st2" d="M53.7,365.9c0,0,29.3-35,41.2-47.4c0,0,1.3,1,19,24.4l2.4,3.7c0,0,4.1,8.7,4.5,10.6
			c0,0,7.2,2.4,8.2,2.3c0,0,17.8,23.5,19.7,26.2c2,2.7,29.2,46.5,29.2,46.5l2.5,9.2l-122.9-16l-55.6-3.8L53.7,365.9z"/>
		<polygon id="XMLID_282_" class="st3" points="96.8,425.4 121.3,388 100.9,382.7 121.3,380 90.3,369.8 94.3,355.7 113.3,349.5 
			105.8,345.7 94.3,318.2 50.6,369.8 94.3,427.4 		"/>
	</g>
	<g id="XMLID_278_">
		<path id="XMLID_280_" class="st4" d="M-0.6,384.1L14.1,370c0,0,1.7-5.6,3.4-7.6c1.2-2.4,3.1-5.6,6-8.8c3.1-3.4,6.2-5.7,8.5-7.1
			c5.8,6.1,12.2,11.6,18,17.8c1.4,1.4,2.2,3.5,3.5,4.9l0,0l15.2,16.1l2.8,1.7l2,9l6.8,9l13.8,20l-94.7-4.2V384.1z"/>
		<path id="XMLID_279_" class="st5" d="M73.6,395.9l-2-9l-2.8-1.7l-15.3-16c-1.3-1.5-2.1-3.5-3.5-5c-5.8-6.1-12.2-11.6-18-17.7
			l1.2,29.3l-8,14.4l10.2,4.2l6.8,5.9l5.1-5.5v8l13.5,0.8l2.1,5.2l6.8,3.3l-0.4,4.2l2,5l22.9,3.6l-13.8-20L73.6,395.9z"/>
	</g>
</g>
<g id="XMLID_270_">
	
		<linearGradient id="XMLID_2_" gradientUnits="userSpaceOnUse" x1="175.4115" y1="480.6734" x2="189.8869" y2="408.6377" gradientTransform="matrix(1 0 0 1 0 5.6)">
		<stop  offset="0" style="stop-color:#7E2787"/>
		<stop  offset="1" style="stop-color:#D04B9C"/>
	</linearGradient>
	<path id="XMLID_276_" class="st6" d="M-0.8,418.8c13.4-0.3,33.8-0.4,58.8,1.3c48.6,3.2,84.1,10.8,94.7,13
		c37.4,7.6,99.4,14.8,207.8,13c0,21,0,41.9,0,62.9H-0.8V418.8z"/>
	<g id="XMLID_274_">
		
			<linearGradient id="XMLID_3_" gradientUnits="userSpaceOnUse" x1="275.6948" y1="461.1908" x2="273.4167" y2="425.3128" gradientTransform="matrix(1 0 0 1 0 5.6)">
			<stop  offset="0" style="stop-color:#7E2787"/>
			<stop  offset="1" style="stop-color:#D04B9C"/>
		</linearGradient>
		<path id="XMLID_275_" class="st7" d="M360.6,447v-12.4c0,0-65-14.9-173.7,5.1C225.1,444.8,280.1,448.4,360.6,447z"/>
	</g>
	<path id="XMLID_273_" class="st8" d="M120.9,474.5l64.3-23.1c0,0,4.4-1.7,0-2.7s-21.9-2.7-21.9-2.7s-6.3-0.8,0-2.7
		c6.3-1.9,28.9-3.6,28.9-3.6h3.1c0,0-29.6,3.2-26.5,3.6c3.1,0.4,19.3,2.5,23.9,2.7s14.9,1.5,4.1,6.6c-10.7,5.1-43.6,25.8-43.6,25.8
		h-32.3L120.9,474.5L120.9,474.5z"/>
	<path id="XMLID_272_" class="st9" d="M-0.8,464.9c0,0,42.1-17.5,93.5-3.9s70.7,17.5,93,16.4c22.2-1.1,83.1-12.3,103.5-10.7
		c20.5,1.6,71.3,7.8,71.3,7.8v34.4H-0.8V464.9z"/>
	
		<linearGradient id="XMLID_4_" gradientUnits="userSpaceOnUse" x1="180.1004" y1="464.5611" x2="180.1004" y2="499.6764" gradientTransform="matrix(1 0 0 1 0 5.6)">
		<stop  offset="2.043588e-007" style="stop-color:#622B6D"/>
		<stop  offset="0.1577" style="stop-color:#5C2867"/>
		<stop  offset="0.3772" style="stop-color:#4C2155"/>
		<stop  offset="0.6332" style="stop-color:#311637"/>
		<stop  offset="0.9146" style="stop-color:#0D050E"/>
		<stop  offset="1" style="stop-color:#000000"/>
	</linearGradient>
	<path id="XMLID_271_" class="st10" d="M347.4,472.9l-2.6-11l-3.4,10.3c-0.4,0-0.8-0.1-1.2-0.1l-0.5-1.2l-1.7-12.1l-3.1,9.3
		l-2.2-9.3l-2.7,12.1c-14.3-1.6-30.2-3.4-40-4.2L287,455l-2.3,11.5c-0.1,0-0.1,0-0.2,0l-3.6-17.5l-4.2,17.7
		c-4.8,0.3-10.4,0.8-16.3,1.4l-2.5-12.4c0,0-2,8.9-3,13c-5.6,0.7-11.5,1.4-17.4,2.2l-4.2-18l-4.2,19.1c-17.4,2.4-34,4.7-43.4,5.2
		c-18.1,0.9-34.3-1.5-67.5-9.8l-3-13.4c0,0-2,8-2.9,11.9c-6-1.5-12.5-3.2-19.6-5.1c-3.8-1-7.6-1.8-11.4-2.5L78.2,445l-3.4,12.3l0,0
		l0,0l0,0l-2.2-10.2l-2,7l-1.7-9.1l-3,11.3c-7.6-0.6-14.9-0.7-21.6-0.3l-3.2-9.7l-2.2,6.3l-2.2-8.5L34,456.8
		c-3.8,0.4-7.3,1-10.5,1.5L21.3,447l-2.7,12.2c-12.1,2.5-19.2,5.5-19.2,5.5v44h361.3v-34.4C360.6,474.5,355.3,473.8,347.4,472.9z"/>
</g>
<g id="XMLID_267_">
	<path id="XMLID_269_" class="st0" d="M360.5,377c-1.9-2.7-3.6-5.6-3.6-7.8c0-5.6-3.9-20.9-3.9-20.9c-2.6-3.3-5.2-7-7.9-11.1
		c-2.7-4.2-4.9-8.2-6.8-11.9l-10.5-18.5c-3.9-2.4-6.3-6.9-6.3-6.9c-4.2-7.7-6.3-12.4-6.3-12.4c-8.7-4-12.9,0-12.9,0l-8.7,11.4
		l-2.6,20.6c-4.2,7.4-12.6,15.3-12.6,15.3v16.9l-23.7,52.4l-20,19.6l-8.9-6.9l-7.9,10.1l-18.4,11.6h161L360.5,377L360.5,377z"/>
	<path id="XMLID_268_" class="st3" d="M360.5,377c-1.5-2.2-3.6-6.4-3.6-8.3c0-5.6-4-21-4-21c-2.6-3.3-5.3-7-8-11.2s-5-8.2-6.9-12
		l-10.6-18.6c-4-2.4-6.4-6.9-6.4-6.9c-3.3-5.9-5.3-10.1-6-11.7c-1.3,1.9,1.8,20.4,1.8,20.4l-6.6,6.7l4.4,9.4
		c1.8,7.8,6.7,62.5,6.7,62.5l-6.6,9.2l0.5,2.8l4.4,10.3v11.7l2.3,12.1c0,0-30.1-12.4-29.8-9.8c0.4,2.7-12.1,13.9-12.1,13.9
		s-22.4,0.2-28.6,0.2s-16.2-3.6-16.2-3.6c-0.8,1.6-2.7,5.3-2.7,5.3h128.1L360.5,377L360.5,377z"/>
</g>
</svg>
